:SAMPLES-PER-SECOND 30
:FULLY-SPECIFIED
:DEGREES
344
root  -1.49698 40.5936 -1.48743 1.21991 74.7938 -1.14352
RightUpLeg  -8.12596 -26.4566 -2.02018
RightLeg  14.3878 -39.5443 -0.12583
RightFoot  -4.72969 0.262496 -5.08954
RightToes  0.00048216 0.542163 -0.142577
Spine  10.0475 -0.474358 -1.39441
Spine1  4.13584 -1.70298 4.70281
HEad  -12.2882 -30.2932 5.90374
LeftShoulder1  5.4667 -8.85936 -38.0421
LeftArm  -18.5168 27.7061 -27.6442
LeftForeArm  16.2956 -13.2157 -2.75158
LeftHand  -0.25398 0.0180481 5.50724
RightShoulder  4.56078 7.78515 34.4453
RightArm  -6.69907 -20.3888 34.2155
RightForeArm  -0.541889 19.4221 5.12741
RightHand  -1.51172 3.55163 -19.7588
LeftUpLeg  9.81438 5.57856 1.91514
LeftLeg  -0.713164 25.5159 -5.70869
LeftFoot  -9.60348 0.114135 -3.76691
LeftToes  1.06244e-005 4.65856e-005 -8.18505e-006
345
root  -2.19136 40.5835 -1.75545 3.38397 78.0757 0.778725
RightUpLeg  -11.545 -36.2285 -0.112181
RightLeg  16.5494 -30.6098 -3.02889
RightFoot  -4.23653 0.275073 -4.87462
RightToes  0.00048216 0.542163 -0.142577
Spine  10.6481 -0.251248 -2.92818
Spine1  3.82785 -1.81343 5.61529
HEad  -12.2557 -28.0039 5.52664
LeftShoulder1  5.20565 -8.63322 -36.7614
LeftArm  -18.5282 26.1223 -26.7026
LeftForeArm  16.0425 -12.2969 -2.65472
LeftHand  -0.25398 0.0180481 5.50724
RightShoulder  4.35985 7.54595 33.5098
RightArm  -10.9545 -19.2138 32.8991
RightForeArm  0.0708361 17.8537 5.10745
RightHand  -1.67469 4.23152 -20.3446
LeftUpLeg  7.90026 5.26208 1.32959
LeftLeg  -0.447148 23.0854 -5.21275
LeftFoot  -9.30586 0.10032 -2.4883
LeftToes  1.06244e-005 4.65856e-005 -8.18505e-006
346
root  -2.85919 40.5891 -2.0218 6.75583 80.74 3.85787
RightUpLeg  -15.7448 -41.6842 1.99154
RightLeg  18.5944 -19.9464 -5.61832
RightFoot  -2.82386 0.26618 -3.87683
RightToes  0.00048216 0.542163 -0.142577
Spine  11.3466 -0.0637076 -3.96184
Spine1  3.24062 -1.74854 5.89786
HEad  -12.1412 -25.1827 5.0056
LeftShoulder1  4.94709 -8.52976 -35.0268
LeftArm  -18.1121 24.5841 -25.0277
LeftForeArm  15.7685 -11.0553 -2.60326
LeftHand  -0.25398 0.0180481 5.50724
RightShoulder  4.11018 7.24713 32.2883
RightArm  -14.5935 -17.9766 30.754
RightForeArm  0.718572 16.1157 4.95613
RightHand  -1.86713 5.0076 -20.988
LeftUpLeg  5.38415 5.38167 1.11712
LeftLeg  1.49078 20.3376 -4.93687
LeftFoot  -8.99117 0.102154 -2.35164
LeftToes  1.06244e-005 4.65856e-005 -8.18505e-006
347
root  -3.42872 40.5961 -2.28682 9.07896 82.3915 6.29172
RightUpLeg  -16.9693 -35.9258 0.4023
RightLeg  20.8157 -12.9826 -5.79966
RightFoot  -0.909438 0.0809797 -0.976771
RightToes  0.00048216 0.542163 -0.142577
Spine  12.0457 0.157614 -3.87047
Spine1  2.73158 -1.3081 5.04726
HEad  -11.9395 -21.8194 4.13405
LeftShoulder1  4.65899 -8.45592 -32.8967
LeftArm  -17.5078 23.2149 -22.6861
LeftForeArm  15.0073 -9.74462 -2.57078
LeftHand  -0.25398 0.0180481 5.50724
RightShoulder  3.83223 6.90622 30.8591
RightArm  -17.33 -16.792 27.7418
RightForeArm  1.45608 14.2238 4.6544
RightHand  -2.08399 5.94938 -21.4861
LeftUpLeg  3.68488 5.68724 1.04581
LeftLeg  3.08509 18.4114 -4.99001
LeftFoot  -8.9243 0.0924035 -1.83134
LeftToes  1.06244e-005 4.65856e-005 -8.18505e-006
348
root  -3.85958 40.5768 -2.5286 8.69578 83.2424 6.46991
RightUpLeg  -15.7738 -24.7543 -3.31153
RightLeg  22.7867 -7.43242 -3.62982
RightFoot  -0.575545 -0.260967 2.7969
RightToes  0.00048216 0.542163 -0.142577
Spine  12.5743 0.414208 -3.22438
Spine1  2.32743 -0.704348 3.69226
HEad  -11.4115 -18.0206 2.75973
LeftShoulder1  4.2898 -8.21871 -30.5238
LeftArm  -17.3031 22.2641 -20.0541
LeftForeArm  13.6631 -8.72575 -2.39118
LeftHand  -0.25398 0.0180481 5.50724
RightShoulder  3.46315 6.39604 28.9908
RightArm  -19.0011 -15.7202 24.0829
RightForeArm  1.35436 12.5979 4.32118
RightHand  -2.2577 6.77633 -21.7024
LeftUpLeg  2.83331 5.89176 0.955204
LeftLeg  4.4688 17.5776 -4.72664
LeftFoot  -9.11053 0.0748755 -1.0371
LeftToes  1.06244e-005 4.65856e-005 -8.18505e-006
349
root  -4.16419 40.557 -2.71995 6.30436 83.979 4.69819
RightUpLeg  -14.3705 -15.4898 -5.61232
RightLeg  23.939 -3.04341 -1.7066
RightFoot  -2.55442 -0.388771 4.79554
RightToes  0.00048216 0.542163 -0.142577
Spine  12.6958 0.570224 -2.95611
Spine1  1.84863 -0.400811 3.04127
HEad  -10.3798 -14.0236 1.08355
LeftShoulder1  3.80339 -7.65349 -27.9633
LeftArm  -17.7745 21.9073 -17.4591
LeftForeArm  12.0824 -8.29962 -2.00147
LeftHand  -0.25398 0.0180481 5.50724
RightShoulder  3.00749 5.69228 26.6439
RightArm  -19.9102 -14.7156 20.0898
RightForeArm  -0.417091 11.619 4.13011
RightHand  -2.34283 7.16895 -21.8181
LeftUpLeg  2.38813 5.94188 0.931186
LeftLeg  5.62792 17.0025 -4.20125
LeftFoot  -9.17529 0.0689235 -0.731871
LeftToes  1.06244e-005 4.65856e-005 -8.18505e-006
350
root  -4.36764 40.5796 -2.85979 3.20447 85.0694 1.94723
RightUpLeg  -12.6484 -9.40546 -6.57659
RightLeg  24.3306 -2.74584 -1.57572
RightFoot  -4.69045 -0.313679 4.83412
RightToes  0.00048216 0.542163 -0.142577
Spine  12.2412 0.493452 -3.26109
Spine1  1.32054 -0.589534 3.44741
HEad  -9.01808 -10.3165 -0.352482
LeftShoulder1  3.2377 -6.8112 -25.1617
LeftArm  -18.5444 21.9564 -14.9006
LeftForeArm  10.6167 -8.5283 -1.56567
LeftHand  -0.25398 0.0180481 5.50724
RightShoulder  2.56343 4.94694 24.1741
RightArm  -20.6375 -13.7031 16.0053
RightForeArm  -3.75341 11.193 4.08459
RightHand  -2.3924 7.21658 -22.1803
LeftUpLeg  2.13726 5.87649 1.03578
LeftLeg  6.05516 16.0918 -3.903
LeftFoot  -8.94389 0.0667418 -0.625071
LeftToes  1.06244e-005 4.65856e-005 -8.18505e-006
351
root  -4.49062 40.6068 -2.94764 2.10582 86.4033 1.00752
RightUpLeg  -10.515 -6.63891 -6.90175
RightLeg  23.9377 -4.10495 -2.20675
RightFoot  -5.41472 -0.296334 5.00628
RightToes  0.00048216 0.542163 -0.142577
Spine  11.3009 0.243758 -3.92334
Spine1  0.841906 -0.986144 4.02194
HEad  -7.6471 -7.50441 -1.15923
LeftShoulder1  2.69283 -5.96288 -22.0665
LeftArm  -19.1961 21.9783 -12.2784
LeftForeArm  9.48408 -9.23052 -1.25294
LeftHand  -0.25398 0.0180481 5.50724
RightShoulder  2.18008 4.24638 21.8403
RightArm  -21.5225 -12.82 12.1338
RightForeArm  -7.49588 11.0221 4.04042
RightHand  -2.49844 7.33972 -22.9055
LeftUpLeg  1.92003 5.70688 0.995543
LeftLeg  6.14036 15.0625 -3.78354
LeftFoot  -8.71283 0.0575034 -0.22417
LeftToes  1.06244e-005 4.65856e-005 -8.18505e-006
352
root  -4.55245 40.6089 -2.99424 6.36764 87.5315 5.45726
RightUpLeg  -7.89565 -6.41277 -7.08169
RightLeg  22.3381 -4.15203 -2.09633
RightFoot  -5.5881 -0.338654 5.98936
RightToes  0.00048216 0.542163 -0.142577
Spine  10.1736 0.0492805 -4.516
Spine1  0.428259 -1.17236 3.95181
HEad  -6.4177 -5.81452 -1.45563
LeftShoulder1  2.23716 -5.33049 -18.7333
LeftArm  -19.8888 21.681 -9.7413
LeftForeArm  8.78115 -10.268 -1.05675
LeftHand  -0.25398 0.0180481 5.50724
RightShoulder  1.81037 3.47887 19.4736
RightArm  -22.4692 -12.2591 8.9164
RightForeArm  -10.3325 10.9719 3.92394
RightHand  -2.69497 7.82025 -23.775
LeftUpLeg  1.8372 5.43251 0.676978
LeftLeg  6.22984 14.3555 -3.64291
LeftFoot  -8.54388 0.0464625 0.201574
LeftToes  1.06244e-005 4.65856e-005 -8.18505e-006
353
root  -4.56769 40.6207 -3.03073 15.8782 88.1227 15.233
RightUpLeg  -4.93043 -8.20458 -7.21285
RightLeg  19.225 -3.14423 -1.44549
RightFoot  -6.36213 -0.311991 6.13566
RightToes  0.00048216 0.542163 -0.142577
Spine  9.04879 0.0351975 -4.64688
Spine1  0.0793831 -0.997305 3.26904
HEad  -5.30516 -4.8993 -1.58705
LeftShoulder1  1.85344 -4.83919 -15.3582
LeftArm  -21.1082 21.0589 -7.59087
LeftForeArm  8.55501 -11.707 -0.93569
LeftHand  -0.25398 0.0180481 5.50724
RightShoulder  1.43357 2.57986 16.9155
RightArm  -23.2038 -11.8832 6.565
RightForeArm  -11.8042 10.9298 3.78571
RightHand  -2.93315 8.59064 -24.4324
LeftUpLeg  2.19561 5.13228 0.290175
LeftLeg  5.86133 14.0594 -3.66217
LeftFoot  -8.20556 0.0393013 0.371756
LeftToes  1.06244e-005 4.65856e-005 -8.18505e-006
354
root  -4.55084 40.6754 -3.08409 22.7674 88.1913 22.3613
RightUpLeg  -2.0576 -11.0425 -7.49902
RightLeg  15.0994 -3.00881 -0.726642
RightFoot  -7.22504 -0.207605 4.41085
RightToes  0.00048216 0.542163 -0.142577
Spine  7.91959 0.12107 -4.13094
Spine1  -0.168614 -0.583001 2.25153
HEad  -4.27488 -4.22463 -1.72562
LeftShoulder1  1.49693 -4.23149 -12.207
LeftArm  -23.1778 20.2535 -5.95968
LeftForeArm  9.10988 -13.609 -0.970841
LeftHand  -0.25398 0.0180481 5.50724
RightShoulder  1.10937 1.71628 14.3984
RightArm  -23.5977 -11.3031 4.8243
RightForeArm  -12.3104 10.6605 3.67904
RightHand  -3.12562 9.35458 -24.683
LeftUpLeg  3.03715 4.89237 0.0420449
LeftLeg  4.62526 14.0792 -4.04557
LeftFoot  -7.60272 0.0250822 0.60083
LeftToes  1.06244e-005 4.65856e-005 -8.18505e-006
355
root  -4.52627 40.7465 -3.15748 20.9217 87.8901 20.6535
RightUpLeg  0.23221 -11.8361 -8.17583
RightLeg  11.1359 -5.05587 0.647193
RightFoot  -7.1233 -0.128083 2.20141
RightToes  0.00048216 0.542163 -0.142577
Spine  6.82412 0.235234 -3.05191
Spine1  -0.357848 -0.0710077 0.954908
HEad  -3.36297 -3.48361 -1.92306
LeftShoulder1  1.17288 -3.41826 -9.53755
LeftArm  -26.177 19.4594 -4.77444
LeftForeArm  10.8885 -15.8278 -1.28609
LeftHand  -0.25398 0.0180481 5.50724
RightShoulder  0.884666 1.08919 12.206
RightArm  -23.6845 -10.3368 3.37309
RightForeArm  -12.6069 10.1092 3.63014
RightHand  -3.24617 9.87077 -24.7673
LeftUpLeg  3.92933 4.73809 -0.0783275
LeftLeg  3.10781 14.4277 -4.55615
LeftFoot  -6.94905 -0.00523274 1.09015
LeftToes  1.06244e-005 4.65856e-005 -8.18505e-006
356
root  -4.51544 40.8012 -3.23731 13.0362 87.2901 12.7999
RightUpLeg  1.71832 -10.8283 -8.76778
RightLeg  8.1215 -6.46686 2.30904
RightFoot  -6.09517 -0.109572 1.46054
RightToes  0.00048216 0.542163 -0.142577
Spine  5.87766 0.418718 -1.70857
Spine1  -0.567137 0.468881 -0.411569
HEad  -2.67018 -2.61371 -2.25282
LeftShoulder1  0.92091 -2.56615 -7.55848
LeftArm  -29.9235 18.8773 -3.94487
LeftForeArm  13.6801 -18.0905 -1.90119
LeftHand  -0.25398 0.0180481 5.50724
RightShoulder  0.741013 0.702757 10.375
RightArm  -23.6306 -9.14834 2.18415
RightForeArm  -13.2058 9.60236 3.66458
RightHand  -3.34784 10.1295 -25.102
LeftUpLeg  4.43623 4.67378 -0.0899558
LeftLeg  2.1516 15.108 -4.8199
LeftFoot  -6.48065 -0.0318551 1.5243
LeftToes  1.06244e-005 4.65856e-005 -8.18505e-006
